<?xml version="1.0" encoding="utf-8"?>
<svg xmlns="http://www.w3.org/2000/svg" style="margin: auto; background: rgb(255, 255, 255); display: block; shape-rendering: auto; animation-play-state: running; animation-delay: 0s;" width="280" height="250" preserveAspectRatio="xMidYMid">
<style type="text/css" style="animation-play-state: running; animation-delay: 0s;">
  text {
    text-anchor: middle; font-size: 51px; opacity: 0;
  }
</style>
<g style="transform-origin: 140px 125px; transform: scale(0.6375); animation-play-state: running; animation-delay: 0s;">
<g transform="translate(140,125)" style="animation-play-state: running; animation-delay: 0s;">
  <g transform="translate(0,0)" style="animation-play-state: running; animation-delay: 0s;"><g class="path" style="transform: rotate(0deg); transform-origin: -188.12px -6.28406px; animation: 1s linear -0.609231s infinite normal forwards running spin-1f613a1f-35c3-4857-a098-649458b7b19c;"><path d="M34.72-0.88L34.72-0.88L34.72-0.88Q36.64-0.88 38.72-3.12L38.72-3.12L39.92-2.16L39.92-2.16Q39.36-1.04 37.44-0.16L37.44-0.16L37.44-0.16Q35.52 0.72 33.20 0.72L33.20 0.72L33.20 0.72Q25.92 0.72 25.92-5.84L25.92-5.84L25.92-5.84Q25.92-8.64 27.36-15.84L27.36-15.84L27.36-15.84Q28.80-23.04 28.80-25.28L28.80-25.28L28.80-25.28Q28.80-28.72 25.52-28.72L25.52-28.72L25.52-28.72Q22.80-28.72 20.28-25.04L20.28-25.04L20.28-25.04Q17.76-21.36 16.16-15.04L16.16-15.04L13.52 0L3.92 0L12.80-50.24L12.80-50.24Q10.40-50 8.80-48L8.80-48L7.60-48.96L7.60-48.96Q10-51.84 13.64-51.84L13.64-51.84L13.64-51.84Q17.28-51.84 19.28-50L19.28-50L19.28-50Q21.28-48.16 21.28-44.80L21.28-44.80L21.28-44.80Q21.28-44.16 21.12-42.72L21.12-42.72L17.76-23.76L17.76-23.76Q21.04-31.12 27.92-31.12L27.92-31.12L27.92-31.12Q32.64-31.12 35.28-28.44L35.28-28.44L35.28-28.44Q37.92-25.76 37.92-21.04L37.92-21.04L37.92-21.04Q37.92-18.56 36.40-11.48L36.40-11.48L36.40-11.48Q34.88-4.40 34.72-0.88" fill="#51cacc" stroke="none" stroke-width="none" transform="translate(-210.03997802734375,19.275937640850355)" style="fill: rgb(81, 202, 204); animation-play-state: running; animation-delay: 0s;"></path></g><g class="path" style="transform: rotate(0deg); transform-origin: -149.08px 4.07594px; animation: 1s linear -0.558462s infinite normal forwards running spin-1f613a1f-35c3-4857-a098-649458b7b19c;"><path d="M71.92 0.72L71.92 0.72L71.92 0.72Q64.88 0.72 64.24-5.44L64.24-5.44L64.24-5.44Q60.72 0.72 55.36 0.72L55.36 0.72L55.36 0.72Q50 0.72 46.84-2.52L46.84-2.52L46.84-2.52Q43.68-5.76 43.68-11.60L43.68-11.60L43.68-11.60Q43.68-20.72 48.16-25.92L48.16-25.92L48.16-25.92Q52.64-31.12 59.76-31.12L59.76-31.12L59.76-31.12Q65.60-31.12 67.52-25.60L67.52-25.60L67.52-25.60Q67.92-28 68.40-30.40L68.40-30.40L68.40-30.40Q74.32-30.40 77.20-30.88L77.20-30.88L78.24-31.12L72.72-0.88L72.72-0.88Q75.12-1.12 76.72-3.12L76.72-3.12L77.92-2.16L77.92-2.16Q75.52 0.72 71.92 0.72zM52.72-7.52L52.72-7.52Q52.72-3.92 53.64-2.52L53.64-2.52L53.64-2.52Q54.56-1.12 56.48-1.12L56.48-1.12L56.48-1.12Q58.40-1.12 60.40-3.20L60.40-3.20L60.40-3.20Q63.04-5.92 64.64-10.08L64.64-10.08L64.64-10.08Q64.88-11.12 65.56-15.08L65.56-15.08L65.56-15.08Q66.24-19.04 66.72-21.60L66.72-21.60L66.72-21.60Q66.48-24.64 65.04-26.88L65.04-26.88L65.04-26.88Q63.60-29.12 61.44-29.12L61.44-29.12L61.44-29.12Q57.52-29.12 55.12-22.12L55.12-22.12L55.12-22.12Q52.72-15.12 52.72-7.52L52.72-7.52" fill="#51cacc" stroke="none" stroke-width="none" transform="translate(-210.03997802734375,19.275937640850355)" style="fill: rgb(157, 248, 113); animation-play-state: running; animation-delay: 0s;"></path></g><g class="path" style="transform: rotate(0deg); transform-origin: -112.08px 4.07594px; animation: 1s linear -0.507692s infinite normal forwards running spin-1f613a1f-35c3-4857-a098-649458b7b19c;"><path d="M103.36-21.20L103.36-21.20L103.36-21.20Q101.68-22.88 101.68-25.28L101.68-25.28L101.68-25.28Q101.68-27.68 103.36-29.40L103.36-29.40L103.36-29.40Q105.04-31.12 107.16-31.12L107.16-31.12L107.16-31.12Q109.28-31.12 110.76-30.04L110.76-30.04L110.76-30.04Q112.24-28.96 112.88-27.28L112.88-27.28L112.88-27.28Q112.96-27.20 112.96-27.12L112.96-27.12L112.96-27.04L112.96-27.04Q113.92-24.96 113.92-21L113.92-21L113.92-21Q113.92-17.04 113-13.76L113-13.76L113-13.76Q112.08-10.48 110.20-7.08L110.20-7.08L110.20-7.08Q108.32-3.68 104.72-1.48L104.72-1.48L104.72-1.48Q101.12 0.72 96.24 0.72L96.24 0.72L96.24 0.72Q91.36 0.72 88.12-2.48L88.12-2.48L88.12-2.48Q84.88-5.68 84.88-9.84L84.88-9.84L84.88-9.84Q84.88-14 86.36-20.12L86.36-20.12L86.36-20.12Q87.84-26.24 88-29.52L88-29.52L88-29.52Q86.72-29.44 85.52-28.60L85.52-28.60L85.52-28.60Q84.32-27.76 83.76-26.96L83.76-26.96L83.20-26.16L82-27.12L82-27.12Q82.24-27.60 82.72-28.24L82.72-28.24L82.72-28.24Q83.20-28.88 85.16-30L85.16-30L85.16-30Q87.12-31.12 90.08-31.12L90.08-31.12L90.08-31.12Q93.04-31.12 94.84-29.20L94.84-29.20L94.84-29.20Q96.64-27.28 96.64-24.32L96.64-24.32L96.64-24.32Q96.64-21.36 95.04-15.16L95.04-15.16L95.04-15.16Q93.44-8.96 93.44-6.44L93.44-6.44L93.44-6.44Q93.44-3.92 94.60-2.48L94.60-2.48L94.60-2.48Q95.76-1.04 97.92-1.04L97.92-1.04L97.92-1.04Q103.28-1.04 107.68-6.88L107.68-6.88L107.68-6.88Q112.08-12.72 112.08-19.92L112.08-19.92L112.08-19.92Q112.08-20.48 111.92-21.60L111.92-21.60L111.92-21.60Q110.24-19.52 107.64-19.52L107.64-19.52L107.64-19.52Q105.04-19.52 103.36-21.20" fill="#51cacc" stroke="none" stroke-width="none" transform="translate(-210.03997802734375,19.275937640850355)" style="fill: rgb(224, 255, 119); animation-play-state: running; animation-delay: 0s;"></path></g><g class="path" style="transform: rotate(0deg); transform-origin: -78.6px 4.07594px; animation: 1s linear -0.456923s infinite normal forwards running spin-1f613a1f-35c3-4857-a098-649458b7b19c;"><path d="M134.96-31.12L134.96-31.12L134.96-31.12Q145.12-31.12 145.12-23.04L145.12-23.04L145.12-23.04Q145.12-18 140.36-15.40L140.36-15.40L140.36-15.40Q135.60-12.80 126.80-12.72L126.80-12.72L126.80-12.72Q126.64-9.84 126.64-8.16L126.64-8.16L126.64-8.16Q126.64-4.56 128.28-2.84L128.28-2.84L128.28-2.84Q129.92-1.12 132.40-1.12L132.40-1.12L132.40-1.12Q134.88-1.12 136.92-2.08L136.92-2.08L136.92-2.08Q138.96-3.04 140.16-4.36L140.16-4.36L140.16-4.36Q141.36-5.68 142.24-7.12L142.24-7.12L142.24-7.12Q143.84-9.76 143.84-10.48L143.84-10.48L145.28-9.84L145.28-9.84Q145.04-8.56 143.84-6.44L143.84-6.44L143.84-6.44Q142.64-4.32 141.20-2.96L141.20-2.96L141.20-2.96Q139.76-1.60 136.96-0.44L136.96-0.44L136.96-0.44Q134.16 0.72 130.72 0.72L130.72 0.72L130.72 0.72Q124.24 0.72 120.92-2.36L120.92-2.36L120.92-2.36Q117.60-5.44 117.60-10.80L117.60-10.80L117.60-10.80Q117.60-20.32 122.32-25.72L122.32-25.72L122.32-25.72Q127.04-31.12 134.96-31.12zM143.12-23.04L143.12-23.04Q143.12-25.68 141.56-27.40L141.56-27.40L141.56-27.40Q140-29.12 136.92-29.12L136.92-29.12L136.92-29.12Q133.84-29.12 130.92-25.44L130.92-25.44L130.92-25.44Q128-21.76 127.04-14.56L127.04-14.56L127.04-14.56Q143.12-14.64 143.12-23.04L143.12-23.04" fill="#51cacc" stroke="none" stroke-width="none" transform="translate(-210.03997802734375,19.275937640850355)" style="fill: rgb(222, 157, 214); animation-play-state: running; animation-delay: 0s;"></path></g><g class="path" style="transform: rotate(0deg); transform-origin: -43.32px 4.07594px; animation: 1s linear -0.406154s infinite normal forwards running spin-1f613a1f-35c3-4857-a098-649458b7b19c;"><path d="M177.68 0.72L177.68 0.72L177.68 0.72Q170.64 0.72 170-5.44L170-5.44L170-5.44Q166.48 0.72 161.12 0.72L161.12 0.72L161.12 0.72Q155.76 0.72 152.60-2.52L152.60-2.52L152.60-2.52Q149.44-5.76 149.44-11.60L149.44-11.60L149.44-11.60Q149.44-20.72 153.92-25.92L153.92-25.92L153.92-25.92Q158.40-31.12 165.52-31.12L165.52-31.12L165.52-31.12Q171.36-31.12 173.28-25.60L173.28-25.60L173.28-25.60Q173.68-28 174.16-30.40L174.16-30.40L174.16-30.40Q180.08-30.40 182.96-30.88L182.96-30.88L184-31.12L178.48-0.88L178.48-0.88Q180.88-1.12 182.48-3.12L182.48-3.12L183.68-2.16L183.68-2.16Q181.28 0.72 177.68 0.72zM158.48-7.52L158.48-7.52Q158.48-3.92 159.40-2.52L159.40-2.52L159.40-2.52Q160.32-1.12 162.24-1.12L162.24-1.12L162.24-1.12Q164.16-1.12 166.16-3.20L166.16-3.20L166.16-3.20Q168.80-5.92 170.40-10.08L170.40-10.08L170.40-10.08Q170.64-11.12 171.32-15.08L171.32-15.08L171.32-15.08Q172-19.04 172.48-21.60L172.48-21.60L172.48-21.60Q172.24-24.64 170.80-26.88L170.80-26.88L170.80-26.88Q169.36-29.12 167.20-29.12L167.20-29.12L167.20-29.12Q163.28-29.12 160.88-22.12L160.88-22.12L160.88-22.12Q158.48-15.12 158.48-7.52L158.48-7.52" fill="#51cacc" stroke="none" stroke-width="none" transform="translate(-210.03997802734375,19.275937640850355)" style="fill: rgb(255, 112, 142); animation-play-state: running; animation-delay: 0s;"></path></g><g class="path" style="transform: rotate(0deg); transform-origin: -3.67998px 4.07594px; animation: 1s linear -0.355385s infinite normal forwards running spin-1f613a1f-35c3-4857-a098-649458b7b19c;"><path d="M219.12-0.88L219.12-0.88L219.12-0.88Q221.04-0.88 223.12-3.12L223.12-3.12L224.32-2.16L224.32-2.16Q223.76-1.04 221.84-0.16L221.84-0.16L221.84-0.16Q219.92 0.72 217.60 0.72L217.60 0.72L217.60 0.72Q210.32 0.72 210.32-5.84L210.32-5.84L210.32-5.84Q210.32-8.64 211.76-15.84L211.76-15.84L211.76-15.84Q213.20-23.04 213.20-25.28L213.20-25.28L213.20-25.28Q213.20-28.72 209.92-28.72L209.92-28.72L209.92-28.72Q207.28-28.72 204.84-25.28L204.84-25.28L204.84-25.28Q202.40-21.84 200.80-15.84L200.80-15.84L198.08-0.88L198.08-0.88Q200.56-1.12 202.16-3.12L202.16-3.12L203.36-2.16L203.36-2.16Q200.96 0.72 197.36 0.72L197.36 0.72L197.36 0.72Q193.76 0.72 191.72-1.12L191.72-1.12L191.72-1.12Q189.68-2.96 189.68-5.92L189.68-5.92L189.68-5.92Q189.68-7.04 190.96-14.72L190.96-14.72L193.60-29.52L193.60-29.52Q191.20-29.28 189.60-27.28L189.60-27.28L188.40-28.24L188.40-28.24Q190.80-31.12 194.44-31.12L194.44-31.12L194.44-31.12Q198.08-31.12 200.08-29.28L200.08-29.28L200.08-29.28Q202.08-27.44 202.08-24.08L202.08-24.08L202.08-23.60L202.08-23.60Q205.36-31.12 212.32-31.12L212.32-31.12L212.32-31.12Q217.04-31.12 219.68-28.44L219.68-28.44L219.68-28.44Q222.32-25.76 222.32-21.04L222.32-21.04L222.32-21.04Q222.32-18.56 220.80-11.48L220.80-11.48L220.80-11.48Q219.28-4.40 219.12-0.88" fill="#51cacc" stroke="none" stroke-width="none" transform="translate(-210.03997802734375,19.275937640850355)" style="fill: rgb(81, 202, 204); animation-play-state: running; animation-delay: 0s;"></path></g><g class="path" style="transform: rotate(0deg); transform-origin: 26.16px 4.07594px; animation: 1s linear -0.304615s infinite normal forwards running spin-1f613a1f-35c3-4857-a098-649458b7b19c;"><path d="M242.88-2.16L242.88-2.16Q240.48 0.72 236.88 0.72L236.88 0.72L236.88 0.72Q233.28 0.72 231.24-1.12L231.24-1.12L231.24-1.12Q229.20-2.96 229.20-5.92L229.20-5.92L229.20-5.92Q229.20-6.96 230.48-14.64L230.48-14.64L233.12-28.96L229.76-28.96L229.92-30.40L233.36-30.40L233.36-30.40Q239.28-30.40 242.08-30.88L242.08-30.88L243.20-31.12L237.68-0.88L237.68-0.88Q240.08-1.12 241.68-3.12L241.68-3.12L242.88-2.16" fill="#51cacc" stroke="none" stroke-width="none" transform="translate(-210.03997802734375,19.275937640850355)" style="fill: rgb(157, 248, 113); animation-play-state: running; animation-delay: 0s;"></path></g><g class="path" style="transform: rotate(0deg); transform-origin: 29.92px -23.6441px; animation: 1s linear -0.253846s infinite normal forwards running spin-1f613a1f-35c3-4857-a098-649458b7b19c;"><path d="M235.84-38.80L235.84-38.80L235.84-38.80Q234.16-40.48 234.16-42.88L234.16-42.88L234.16-42.88Q234.16-45.28 235.84-47L235.84-47L235.84-47Q237.52-48.72 239.92-48.72L239.92-48.72L239.92-48.72Q242.32-48.72 244.04-47L244.04-47L244.04-47Q245.76-45.28 245.76-42.88L245.76-42.88L245.76-42.88Q245.76-40.48 244.04-38.80L244.04-38.80L244.04-38.80Q242.32-37.12 239.92-37.12L239.92-37.12L239.92-37.12Q237.52-37.12 235.84-38.80" fill="#51cacc" stroke="none" stroke-width="none" transform="translate(-210.03997802734375,19.275937640850355)" style="fill: rgb(224, 255, 119); animation-play-state: running; animation-delay: 0s;"></path></g><g class="path" style="transform: rotate(0deg); transform-origin: 51.88px 4.07594px; animation: 1s linear -0.203077s infinite normal forwards running spin-1f613a1f-35c3-4857-a098-649458b7b19c;"><path d="M266.72-16.72L266.72-16.72L266.72-16.72Q265.04-18.40 265.04-20.80L265.04-20.80L265.04-20.80Q265.04-23.20 266.72-24.92L266.72-24.92L266.72-24.92Q268.40-26.64 270.80-26.64L270.80-26.64L270.80-26.64Q271.52-26.64 272.64-26.32L272.64-26.32L272.64-26.32Q271.12-29.12 266.96-29.12L266.96-29.12L266.96-29.12Q262.80-29.12 259.60-23.84L259.60-23.84L259.60-23.84Q256.40-18.56 256.40-8.16L256.40-8.16L256.40-8.16Q256.40-4.56 258.04-2.84L258.04-2.84L258.04-2.84Q259.68-1.12 262.16-1.12L262.16-1.12L262.16-1.12Q264.64-1.12 266.68-2.08L266.68-2.08L266.68-2.08Q268.72-3.04 269.92-4.36L269.92-4.36L269.92-4.36Q271.12-5.68 272-7.12L272-7.12L272-7.12Q273.60-9.76 273.60-10.48L273.60-10.48L275.04-9.84L275.04-9.84Q274.80-8.56 273.60-6.44L273.60-6.44L273.60-6.44Q272.40-4.32 270.96-2.96L270.96-2.96L270.96-2.96Q269.52-1.60 266.72-0.44L266.72-0.44L266.72-0.44Q263.92 0.72 260.48 0.72L260.48 0.72L260.48 0.72Q254.00 0.72 250.68-2.36L250.68-2.36L250.68-2.36Q247.36-5.44 247.36-10.80L247.36-10.80L247.36-10.80Q247.36-20.32 252.12-25.72L252.12-25.72L252.12-25.72Q256.88-31.12 265.04-31.12L265.04-31.12L265.04-31.12Q270.56-31.12 273.52-28.32L273.52-28.32L273.52-28.32Q276.48-25.52 276.48-20.96L276.48-20.96L276.48-20.96Q276.48-18.08 274.76-16.56L274.76-16.56L274.76-16.56Q273.04-15.04 270.72-15.04L270.72-15.04L270.72-15.04Q268.40-15.04 266.72-16.72" fill="#51cacc" stroke="none" stroke-width="none" transform="translate(-210.03997802734375,19.275937640850355)" style="fill: rgb(222, 157, 214); animation-play-state: running; animation-delay: 0s;"></path></g><g class="path" style="transform: rotate(0deg); transform-origin: 83.56px 4.07594px; animation: 1s linear -0.152308s infinite normal forwards running spin-1f613a1f-35c3-4857-a098-649458b7b19c;"><path d="M297.12-31.12L297.12-31.12L297.12-31.12Q307.28-31.12 307.28-23.04L307.28-23.04L307.28-23.04Q307.28-18 302.52-15.40L302.52-15.40L302.52-15.40Q297.76-12.80 288.96-12.72L288.96-12.72L288.96-12.72Q288.80-9.84 288.80-8.16L288.80-8.16L288.80-8.16Q288.80-4.56 290.44-2.84L290.44-2.84L290.44-2.84Q292.08-1.12 294.56-1.12L294.56-1.12L294.56-1.12Q297.04-1.12 299.08-2.08L299.08-2.08L299.08-2.08Q301.12-3.04 302.32-4.36L302.32-4.36L302.32-4.36Q303.52-5.68 304.40-7.12L304.40-7.12L304.40-7.12Q306-9.76 306-10.48L306-10.48L307.44-9.84L307.44-9.84Q307.20-8.56 306-6.44L306-6.44L306-6.44Q304.80-4.32 303.36-2.96L303.36-2.96L303.36-2.96Q301.92-1.60 299.12-0.44L299.12-0.44L299.12-0.44Q296.32 0.72 292.88 0.72L292.88 0.72L292.88 0.72Q286.40 0.72 283.08-2.36L283.08-2.36L283.08-2.36Q279.76-5.44 279.76-10.80L279.76-10.80L279.76-10.80Q279.76-20.32 284.48-25.72L284.48-25.72L284.48-25.72Q289.20-31.12 297.12-31.12zM305.28-23.04L305.28-23.04Q305.28-25.68 303.72-27.40L303.72-27.40L303.72-27.40Q302.16-29.12 299.08-29.12L299.08-29.12L299.08-29.12Q296-29.12 293.08-25.44L293.08-25.44L293.08-25.44Q290.16-21.76 289.20-14.56L289.20-14.56L289.20-14.56Q305.28-14.64 305.28-23.04L305.28-23.04" fill="#51cacc" stroke="none" stroke-width="none" transform="translate(-210.03997802734375,19.275937640850355)" style="fill: rgb(255, 112, 142); animation-play-state: running; animation-delay: 0s;"></path></g><g class="path" style="transform: rotate(0deg); transform-origin: 119.68px -6.28406px; animation: 1s linear -0.101538s infinite normal forwards running spin-1f613a1f-35c3-4857-a098-649458b7b19c;"><path d="M339.36 0.72L339.36 0.72L339.36 0.72Q332.32 0.72 331.68-5.28L331.68-5.28L331.68-5.28Q328.16 0.72 322.72 0.72L322.72 0.72L322.72 0.72Q317.28 0.72 314.40-2.36L314.40-2.36L314.40-2.36Q311.52-5.44 311.52-10.80L311.52-10.80L311.52-10.80Q311.52-20.24 316-25.68L316-25.68L316-25.68Q320.48-31.12 327.60-31.12L327.60-31.12L327.60-31.12Q331.68-31.12 333.92-28.64L333.92-28.64L333.92-28.64Q334.88-27.36 335.12-26.72L335.12-26.72L339.44-50.24L339.44-50.24Q337.04-50 335.44-48L335.44-48L334.24-48.96L334.24-48.96Q336.64-51.84 340.28-51.84L340.28-51.84L340.28-51.84Q343.92-51.84 345.92-50L345.92-50L345.92-50Q347.92-48.16 347.92-44.80L347.92-44.80L347.92-44.80Q347.92-44.16 347.76-42.72L347.76-42.72L347.76-42.72Q343.84-20.72 340.16-0.88L340.16-0.88L340.16-0.88Q342.56-1.12 344.16-3.12L344.16-3.12L345.36-2.16L345.36-2.16Q342.96 0.72 339.36 0.72zM320.56-7.52L320.56-7.52Q320.56-3.84 321.32-2.48L321.32-2.48L321.32-2.48Q322.08-1.12 323.72-1.12L323.72-1.12L323.72-1.12Q325.36-1.12 326.88-2.24L326.88-2.24L326.88-2.24Q328.40-3.36 329.44-5.12L329.44-5.12L329.44-5.12Q331.36-8.08 332.16-10.16L332.16-10.16L334.48-22.80L334.48-22.80Q334.32-25.36 332.80-27.48L332.80-27.48L332.80-27.48Q331.28-29.60 327.60-29.60L327.60-29.60L327.60-29.60Q325.04-29.60 322.80-22.08L322.80-22.08L322.80-22.08Q320.56-14.56 320.56-7.52L320.56-7.52" fill="#51cacc" stroke="none" stroke-width="none" transform="translate(-210.03997802734375,19.275937640850355)" style="fill: rgb(81, 202, 204); animation-play-state: running; animation-delay: 0s;"></path></g><g class="path" style="transform: rotate(0deg); transform-origin: 157px 4.07594px; animation: 1s linear -0.0507692s infinite normal forwards running spin-1f613a1f-35c3-4857-a098-649458b7b19c;"><path d="M378 0.72L378 0.72L378 0.72Q370.96 0.72 370.32-5.44L370.32-5.44L370.32-5.44Q366.80 0.72 361.44 0.72L361.44 0.72L361.44 0.72Q356.08 0.72 352.92-2.52L352.92-2.52L352.92-2.52Q349.76-5.76 349.76-11.60L349.76-11.60L349.76-11.60Q349.76-20.72 354.24-25.92L354.24-25.92L354.24-25.92Q358.72-31.12 365.84-31.12L365.84-31.12L365.84-31.12Q371.68-31.12 373.60-25.60L373.60-25.60L373.60-25.60Q374-28 374.48-30.40L374.48-30.40L374.48-30.40Q380.40-30.40 383.28-30.88L383.28-30.88L384.32-31.12L378.80-0.88L378.80-0.88Q381.20-1.12 382.80-3.12L382.80-3.12L384-2.16L384-2.16Q381.60 0.72 378 0.72zM358.80-7.52L358.80-7.52Q358.80-3.92 359.72-2.52L359.72-2.52L359.72-2.52Q360.64-1.12 362.56-1.12L362.56-1.12L362.56-1.12Q364.48-1.12 366.48-3.20L366.48-3.20L366.48-3.20Q369.12-5.92 370.72-10.08L370.72-10.08L370.72-10.08Q370.96-11.12 371.64-15.08L371.64-15.08L371.64-15.08Q372.32-19.04 372.80-21.60L372.80-21.60L372.80-21.60Q372.56-24.64 371.12-26.88L371.12-26.88L371.12-26.88Q369.68-29.12 367.52-29.12L367.52-29.12L367.52-29.12Q363.60-29.12 361.20-22.12L361.20-22.12L361.20-22.12Q358.80-15.12 358.80-7.52L358.80-7.52" fill="#51cacc" stroke="none" stroke-width="none" transform="translate(-210.03997802734375,19.275937640850355)" style="fill: rgb(157, 248, 113); animation-play-state: running; animation-delay: 0s;"></path></g><g class="path" style="transform: rotate(0deg); transform-origin: 196.04px 11.0759px; animation: 1s linear 0s infinite normal forwards running spin-1f613a1f-35c3-4857-a098-649458b7b19c;"><path d="M393.44-29.52L393.44-29.52L393.44-29.52Q391.52-29.52 389.44-27.28L389.44-27.28L388.24-28.24L388.24-28.24Q388.80-29.36 390.72-30.24L390.72-30.24L390.72-30.24Q392.64-31.12 394.96-31.12L394.96-31.12L394.96-31.12Q402.24-31.12 402.24-24.56L402.24-24.56L402.24-24.56Q402.24-21.76 400.72-15.40L400.72-15.40L400.72-15.40Q399.20-9.04 399.20-6.80L399.20-6.80L399.20-6.80Q399.20-2.96 402.40-2.96L402.40-2.96L402.40-2.96Q405.04-2.96 407.56-6.56L407.56-6.56L407.56-6.56Q410.08-10.16 411.68-16.24L411.68-16.24L414.32-30.40L414.32-30.40Q420.24-30.40 422.96-30.88L422.96-30.88L424-31.12L418.96-2.80L418.96-2.80Q417.52 5.44 412.28 10.08L412.28 10.08L412.28 10.08Q407.04 14.72 398.72 14.72L398.72 14.72L398.72 14.72Q393.68 14.72 390.92 13L390.92 13L390.92 13Q388.16 11.28 388.16 8.52L388.16 8.52L388.16 8.52Q388.16 5.76 389.84 4.12L389.84 4.12L389.84 4.12Q391.52 2.48 394.60 2.48L394.60 2.48L394.60 2.48Q397.68 2.48 400.32 3.48L400.32 3.48L400.32 3.48Q402.96 4.48 404.16 4.64L404.16 4.64L404 6.08L404 6.08Q402.64 5.92 400.08 4.96L400.08 4.96L400.08 4.96Q397.52 4 395 4L395 4L395 4Q392.48 4 391.16 5.12L391.16 5.12L391.16 5.12Q389.84 6.24 389.84 8.36L389.84 8.36L389.84 8.36Q389.84 10.48 392.16 11.80L392.16 11.80L392.16 11.80Q394.48 13.12 397.92 13.12L397.92 13.12L397.92 13.12Q406.24 13.12 408.16 3.12L408.16 3.12L410.16-7.92L410.16-7.92Q406.80-0.56 400-0.56L400-0.56L400-0.56Q395.36-0.56 392.84-3.20L392.84-3.20L392.84-3.20Q390.32-5.84 390.32-10.64L390.32-10.64L390.32-10.64Q390.32-13.12 391.80-19.56L391.80-19.56L391.80-19.56Q393.28-26 393.44-29.52" fill="#51cacc" stroke="none" stroke-width="none" transform="translate(-210.03997802734375,19.275937640850355)" style="fill: rgb(224, 255, 119); animation-play-state: running; animation-delay: 0s;"></path></g></g>
</g>
</g>
<style id="spin-1f613a1f-35c3-4857-a098-649458b7b19c" data-anikit="">@keyframes spin-1f613a1f-35c3-4857-a098-649458b7b19c
{
  0% {
    animation-timing-function: cubic-bezier(0.5856,0.0703,0.4143,0.9297);
    transform: rotate(0deg);
  }
  100% {
    transform: rotate(360deg);
  }
}</style></svg>