<?xml version="1.0" encoding="utf-8"?><svg xmlns="http://www.w3.org/2000/svg" width="288" height="90" preserveAspectRatio="xMidYMid" xmlns:xlink="http://www.w3.org/1999/xlink" style="margin-right:-2px;display:block;background-repeat-y:initial;background-repeat-x:initial;background-color:rgb(255, 255, 255);animation-play-state:paused" ><style type="text/css" style="animation-play-state:paused" >text {
    text-anchor: middle; font-size: 87px; opacity: 0;
  }</style>


<g style="transform-origin:144px 45px;transform:matrix(1.0875, 0, 0, 1.0875, 0, 0);animation-play-state:paused" ><g transform="translate(144,45)" style="transform:matrix(1, 0, 0, 1, 144, 45);animation-play-state:paused" ><g transform="translate(0,0)" style="transform:matrix(1, 0, 0, 1, 0, 0);animation-play-state:paused" ><g class="path" style="transform-origin:-91.15px -5.15495px;transform:matrix(1.02641, 0, 0, 1.02641, 0, 0);animation-timing-function:linear;animation-play-state:paused;animation-name:breath-cdcb1fd3-823b-44d5-91c6-e6b0c42be293;animation-iteration-count:infinite;animation-fill-mode:forwards;animation-duration:1s;animation-delay:-0.495s" ><path d="M21.88-24.53L21.88 0L6.37 0L6.37-56.25L21.88-56.25L21.88-31.68L42.42-31.68L42.42-56.25L57.93-56.25L57.93 0L42.42 0L42.42-24.53L21.88-24.53" fill="#dc3636" stroke="none" stroke-width="none" transform="translate(-123.29998779296875,22.970047912597657)" style="transform:matrix(1, 0, 0, 1, -123.3, 22.97);fill:rgb(220, 54, 54);animation-play-state:paused" ></path></g>
<g class="path" style="transform-origin:-26.1864px 0.215046px;transform:matrix(0.987608, 0, 0, 0.987608, 0, 0);animation-timing-function:linear;animation-play-state:paused;animation-name:breath-cdcb1fd3-823b-44d5-91c6-e6b0c42be293;animation-iteration-count:infinite;animation-fill-mode:forwards;animation-duration:1s;animation-delay:-0.33s" ><path d="M124.22-26.91L124.22-26.91L124.22-26.17L124.22-26.17Q124.14-22.89 123.54-19.38L123.54-19.38L123.54-19.38Q122.93-15.86 121.84-12.34L121.84-12.34L121.84-12.34Q120.74-8.83 119.22-5.39L119.22-5.39L119.22-5.39Q117.70-1.95 115.80 1.19L115.80 1.19L115.80 1.19Q113.91 4.34 111.72 7.09L111.72 7.09L111.72 7.09Q109.53 9.84 107.11 11.95L107.11 11.95L101.29 8.59L101.29 8.59Q102.66 6.29 103.77 3.57L103.77 3.57L103.77 3.57Q104.88 0.86 105.78-2.11L105.78-2.11L105.78-2.11Q106.68-5.08 107.32-8.20L107.32-8.20L107.32-8.20Q107.97-11.33 108.40-14.41L108.40-14.41L108.40-14.41Q108.83-17.50 109.04-20.49L109.04-20.49L109.04-20.49Q109.26-23.48 109.26-26.17L109.26-26.17L109.26-26.17Q109.26-28.28 109.24-30.96L109.24-30.96L109.24-30.96Q109.22-33.63 108.93-36.41L108.93-36.41L108.93-36.41Q108.63-39.18 107.97-41.82L107.97-41.82L107.97-41.82Q107.30-44.45 106.00-46.52L106.00-46.52L106.00-46.52Q104.69-48.59 102.64-49.84L102.64-49.84L102.64-49.84Q100.59-51.09 97.54-51.09L97.54-51.09L97.54-51.09Q94.84-51.09 92.91-50.18L92.91-50.18L92.91-50.18Q90.98-49.26 89.63-47.71L89.63-47.71L89.63-47.71Q88.28-46.17 87.48-44.14L87.48-44.14L87.48-44.14Q86.68-42.11 86.23-39.86L86.23-39.86L86.23-39.86Q85.78-37.62 85.64-35.33L85.64-35.33L85.64-35.33Q85.51-33.05 85.51-31.02L85.51-31.02L85.51-20.12L102.34-20.12L102.34-13.67L85.51-13.67L85.51 0L70 0L70-28.59L70-28.59Q70-34.73 71.95-40L71.95-40L71.95-40Q73.91-45.27 77.48-49.16L77.48-49.16L77.48-49.16Q81.05-53.05 86.07-55.25L86.07-55.25L86.07-55.25Q91.09-57.46 97.27-57.46L97.27-57.46L97.27-57.46Q101.45-57.46 105.10-56.27L105.10-56.27L105.10-56.27Q108.75-55.08 111.76-52.99L111.76-52.99L111.76-52.99Q114.77-50.90 117.13-48.03L117.13-48.03L117.13-48.03Q119.49-45.16 121.07-41.76L121.07-41.76L121.07-41.76Q122.66-38.36 123.48-34.57L123.48-34.57L123.48-34.57Q124.30-30.78 124.22-26.91" fill="#dc3636" stroke="none" stroke-width="none" transform="translate(-123.29998779296875,22.970047912597657)" style="transform:matrix(1, 0, 0, 1, -123.3, 22.97);animation-play-state:paused" ></path></g>
<g class="path" style="transform-origin:36.7px -5.15495px;transform:matrix(0.948804, 0, 0, 0.948804, 0, 0);animation-timing-function:linear;animation-play-state:paused;animation-name:breath-cdcb1fd3-823b-44d5-91c6-e6b0c42be293;animation-iteration-count:infinite;animation-fill-mode:forwards;animation-duration:1s;animation-delay:-0.165s" ><path d="M141.48-38.59L141.48 0L134.30 0L134.30-56.25L144.38-56.25L178.55-17.62L178.55-56.25L185.70-56.25L185.70 0L175.63 0L141.48-38.59" fill="#dc3636" stroke="none" stroke-width="none" transform="translate(-123.29998779296875,22.970047912597657)" style="transform:matrix(1, 0, 0, 1, -123.3, 22.97);fill:rgb(220, 54, 54);animation-play-state:paused" ></path></g>
<g class="path" style="transform-origin:102.405px -5.15495px;transform:matrix(0.91, 0, 0, 0.91, 0, 0);animation-timing-function:linear;animation-play-state:paused;animation-name:breath-cdcb1fd3-823b-44d5-91c6-e6b0c42be293;animation-iteration-count:infinite;animation-fill-mode:forwards;animation-duration:1s" ><path d="M252.97-28.20L252.97-28.20L252.97-28.20Q252.97-24.10 251.88-20.41L251.88-20.41L251.88-20.41Q250.78-16.72 248.81-13.59L248.81-13.59L248.81-13.59Q246.84-10.47 244.10-7.95L244.10-7.95L244.10-7.95Q241.37-5.43 238.07-3.67L238.07-3.67L238.07-3.67Q234.77-1.91 231.00-0.96L231.00-0.96L231.00-0.96Q227.23 0 223.24 0L223.24 0L198.44 0L198.44-56.25L223.24-56.25L223.24-56.25Q227.23-56.25 230.98-55.31L230.98-55.31L230.98-55.31Q234.73-54.38 238.03-52.64L238.03-52.64L238.03-52.64Q241.33-50.90 244.08-48.40L244.08-48.40L244.08-48.40Q246.84-45.90 248.81-42.79L248.81-42.79L248.81-42.79Q250.78-39.69 251.88-36.00L251.88-36.00L251.88-36.00Q252.97-32.30 252.97-28.20zM237.23-28.20L237.23-28.20L237.23-28.20Q237.23-32.77 236.11-36.89L236.11-36.89L236.11-36.89Q235-41.02 232.66-44.14L232.66-44.14L232.66-44.14Q230.31-47.27 226.70-49.10L226.70-49.10L226.70-49.10Q223.09-50.94 218.05-50.94L218.05-50.94L213.95-50.94L213.95-5.47L218.05-5.47L218.05-5.47Q223.01-5.47 226.62-7.32L226.62-7.32L226.62-7.32Q230.23-9.18 232.60-12.32L232.60-12.32L232.60-12.32Q234.96-15.47 236.09-19.57L236.09-19.57L236.09-19.57Q237.23-23.67 237.23-28.20" fill="#dc3636" stroke="none" stroke-width="none" transform="translate(-123.29998779296875,22.970047912597657)" style="transform:matrix(1, 0, 0, 1, -123.3, 22.97);animation-play-state:paused" ></path></g></g></g></g></svg>